<svg width="200" height="202" viewBox="0 0 200 202" fill="none" xmlns="http://www.w3.org/2000/svg">
<path d="M99.5084 0C76.3963 0.234219 54.0708 8.43504 36.2916 23.2214C18.5124 38.0078 6.36562 58.4764 1.8969 81.1802C-2.57183 103.884 0.910464 127.436 11.7573 147.87C22.6042 168.304 40.153 184.372 61.4485 193.367C62.6355 193.87 63.9129 194.125 65.2019 194.115C66.4909 194.105 67.7643 193.831 68.9434 193.31C70.1225 192.788 71.1825 192.03 72.0579 191.083C72.9333 190.136 73.6056 189.019 74.0333 187.801C74.771 185.469 74.6095 182.945 73.5805 180.726C72.5515 178.507 70.7296 176.754 68.474 175.813C50.2973 168.039 35.5532 153.929 26.9756 136.1C18.398 118.271 16.569 97.9334 21.8276 78.8574C27.0863 59.7814 39.0759 43.2617 55.5731 32.3616C72.0703 21.4614 91.9559 16.9204 111.542 19.5805C131.129 22.2406 149.088 31.9214 162.088 46.8277C175.089 61.734 182.249 80.8546 182.242 100.644C182.235 120.433 175.06 139.548 162.048 154.445C149.037 169.341 131.071 179.009 111.482 181.654L108.122 182.113L107.908 180.125C107.307 175.313 107.712 170.429 109.1 165.783C110.663 160.825 113.422 156.33 117.133 152.694C118.462 151.438 119.641 150.032 120.646 148.504C120.9 148.162 121.037 147.747 121.038 147.32C121.038 146.894 120.902 146.479 120.648 146.136C120.395 145.793 120.038 145.541 119.631 145.417C119.223 145.292 118.787 145.303 118.386 145.446C112.788 147.309 106.934 148.289 101.036 148.351C95.1267 148.291 89.2631 147.311 83.6552 145.446C83.254 145.303 82.8174 145.292 82.4099 145.417C82.0024 145.541 81.6457 145.793 81.3923 146.136C81.1389 146.479 81.0024 146.894 81.0028 147.32C81.0033 147.747 81.1407 148.162 81.3948 148.504C82.1186 149.585 82.9254 150.607 83.8079 151.562C89.809 157.95 93.1799 166.371 93.2465 175.141V192.45C93.2385 193.601 93.4575 194.742 93.891 195.808C94.3245 196.875 94.964 197.845 95.7728 198.663C96.5816 199.481 97.5437 200.132 98.6041 200.577C99.6645 201.022 100.802 201.253 101.952 201.257C128.388 200.605 153.502 189.55 171.853 170.488C190.204 151.426 200.314 125.893 199.993 99.4205C199.671 72.9479 188.944 47.6681 170.135 29.0587C151.327 10.4492 125.952 0.00897524 99.5084 0Z" fill="#609C42"/>
<path d="M100.577 139.36C103.378 127.848 108.355 116.979 115.238 107.341C116.351 102.03 116.925 96.6201 116.949 91.1938C116.949 62.8752 100.577 39.8779 100.577 39.8779C100.577 39.8779 84.2041 62.8752 84.2041 91.1938C84.2286 96.6201 84.8017 102.03 85.9147 107.341C92.7733 116.994 97.7479 127.857 100.577 139.36Z" fill="#EE343F"/>
<path d="M146.091 122.142C134.438 133.089 119.968 140.566 104.305 143.733C107.482 128.065 114.949 113.591 125.87 101.928C137.523 90.9821 151.994 83.5055 167.656 80.3371C164.486 96.0072 157.019 110.483 146.091 122.142Z" fill="#EE343F"/>
<path d="M75.2851 101.898C86.2093 113.567 93.6669 128.055 96.8198 143.734C81.1562 140.569 66.685 133.092 55.0333 122.143C44.1672 110.454 36.7638 95.9691 33.6514 80.3079C49.2596 83.5029 63.6738 90.9779 75.2851 101.898Z" fill="#EE343F"/>
<path d="M121.013 100.369C121.533 99.788 122.083 99.207 122.632 98.6565C127.765 93.5887 133.572 89.256 139.891 85.7817C141.153 74.9829 140.617 64.0491 138.302 53.4264C131.133 58.5355 124.699 64.6067 119.181 71.4695C120.735 77.93 121.534 84.5494 121.563 91.1946C121.538 94.2602 121.354 97.3224 121.013 100.369Z" fill="#EE343F"/>
<path d="M78.5235 98.6565C79.0734 99.207 79.5926 99.788 80.1425 100.369C79.7968 97.3231 79.6235 94.2601 79.6232 91.1946C79.6521 84.5494 80.4517 77.93 82.0057 71.4695C76.469 64.613 70.0258 58.5429 62.8536 53.4264C60.4985 64.0423 59.9204 74.9761 61.1431 85.7817C67.5043 89.2465 73.3537 93.5795 78.5235 98.6565Z" fill="#EE343F"/>
</svg>
