<svg width="18" height="18" viewBox="0 0 18 18" fill="none" xmlns="http://www.w3.org/2000/svg">
<g clip-path="url(#clip0_1138_56)">
<path d="M8.90354 -0.000263824C4.33096 0.0481305 0.462681 3.59436 0.0406376 8.14612C-0.327642 12.1064 1.89816 15.7709 5.49763 17.2926C5.94386 17.4808 6.45999 17.2577 6.62397 16.7953C6.77451 16.3732 6.54064 15.9 6.12935 15.7252C3.11322 14.4347 1.29333 11.2891 1.76644 7.94447C2.23956 4.59989 4.98419 2.02423 8.32021 1.72042C12.6535 1.32789 16.3095 4.74507 16.3095 9.00108C16.3095 12.7006 13.546 15.7682 9.97612 16.2468L9.67505 16.2898L9.65623 16.1097C9.60784 15.6795 9.63204 15.2386 9.76376 14.8272C9.90623 14.3863 10.1455 13.983 10.4842 13.655C10.6132 13.5313 10.7181 13.4023 10.7987 13.2813C10.8901 13.1415 10.753 12.964 10.5944 13.0151C10.2449 13.1307 9.68042 13.2732 9.04064 13.2732C8.40085 13.2732 7.83634 13.128 7.48687 13.0151C7.32827 12.964 7.19118 13.1388 7.28257 13.2786C7.34171 13.3673 7.41429 13.4614 7.49763 13.5528C8.02989 14.1309 8.34171 14.8783 8.34171 15.6634V17.212C8.34171 17.6448 8.69118 18.0051 9.12397 17.9997C14.0299 17.9325 17.9976 13.9212 17.9976 9.00108C17.9976 4.08099 13.9089 -0.0513467 8.90354 -0.000263824Z" fill="white"/>
<path d="M8.99997 12.4641C9.13437 11.9076 9.49728 10.7192 10.3118 9.60079C10.4059 9.14642 10.465 8.66247 10.465 8.15702C10.465 5.6217 8.99997 3.56763 8.99997 3.56763C8.99997 3.56763 7.53491 5.6217 7.53491 8.15702C7.53491 8.66247 7.59405 9.14642 7.68814 9.60079C8.50534 10.7192 8.86556 11.9076 8.99997 12.4641Z" fill="white"/>
<path d="M13.0752 10.9236C11.5107 12.4884 9.33594 12.854 9.33594 12.854C9.33594 12.854 9.69884 10.679 11.266 9.11423C12.8306 7.54948 15.0053 7.18384 15.0053 7.18384C15.0053 7.18384 14.6424 9.35889 13.0752 10.9236Z" fill="white"/>
<path d="M6.73388 9.11155C8.29839 10.6763 8.66398 12.8514 8.66398 12.8514C8.66398 12.8514 6.48925 12.4884 4.92474 10.921C3.36022 9.35621 2.99463 7.18115 2.99463 7.18115C2.99463 7.18115 5.16936 7.54411 6.73388 9.11155Z" fill="white"/>
<path d="M10.828 8.97714C10.8764 8.92605 10.9248 8.87228 10.9732 8.82389C11.4598 8.33726 11.9974 7.96355 12.5162 7.67318C12.7071 6.07617 12.3737 4.78027 12.3737 4.78027C12.3737 4.78027 11.5028 5.35832 10.6587 6.39342C10.7877 6.9392 10.8711 7.53337 10.8711 8.15981C10.8711 8.43942 10.8549 8.71366 10.8254 8.97983L10.828 8.97714Z" fill="white"/>
<path d="M7.02412 8.82121C7.0752 8.87229 7.1209 8.92337 7.16929 8.97445C7.13972 8.70829 7.12359 8.43405 7.12359 8.15444C7.12359 7.528 7.20961 6.93383 7.33595 6.38805C6.49187 5.35295 5.6209 4.7749 5.6209 4.7749C5.6209 4.7749 5.28757 6.07348 5.47843 7.66781C5.99724 7.95817 6.53488 8.33189 7.02144 8.81852L7.02412 8.82121Z" fill="white"/>
</g>
<defs>
<clipPath id="clip0_1138_56">
<rect width="18" height="18" fill="white"/>
</clipPath>
</defs>
</svg>
