<svg width="539" height="99" viewBox="0 0 539 99" fill="none" xmlns="http://www.w3.org/2000/svg">
<g clip-path="url(#clip0_1129_2132)">
<path d="M133.098 25.0623C127.087 25.0623 123.797 28.3417 123.797 34.2988V38.5561H119.289V45.7468H123.797V74.5247H131.46V45.7468H137.951V38.5561H131.46V34.9006C131.46 32.629 132.181 31.8919 134.3 31.8919C135.627 31.9228 136.943 32.1457 138.206 32.5538L138.687 32.6892V25.8295L138.417 25.7542C136.68 25.2973 134.893 25.0647 133.098 25.0623Z" fill="#609C42"/>
<path d="M155.936 37.8188C146.335 37.8188 139.889 45.3405 139.889 56.5779C139.889 67.8152 146.41 75.2165 155.741 75.2165C165.462 75.2165 171.998 67.6196 171.998 56.3221C171.998 45.4458 165.402 37.8188 155.936 37.8188ZM164.275 56.5779C164.275 63.1518 160.804 67.9355 156.011 67.9355C150.752 67.9355 147.612 63.6181 147.612 56.3672C147.612 49.5526 150.767 45.1449 155.681 45.1449C160.985 45.1299 164.275 49.5225 164.275 56.5779Z" fill="#609C42"/>
<path d="M192.329 37.8189C190.887 37.8129 189.46 38.1096 188.14 38.6901C186.82 39.2705 185.637 40.1217 184.666 41.1886V38.5561H177.018V74.5246H184.666V54.0206C184.666 48.4245 186.98 45.3406 191.187 45.3406C192.975 45.2816 194.745 45.7079 196.311 46.5742L196.731 46.7998L198.73 39.5038L198.504 39.3534C196.653 38.2158 194.496 37.6798 192.329 37.8189Z" fill="#609C42"/>
<path d="M214.867 37.8188C205.131 37.8188 199.075 44.9945 199.075 56.5779C199.075 67.5745 205.491 75.2616 214.672 75.2616C216.947 75.3523 219.217 74.9805 221.345 74.1686C223.473 73.3568 225.415 72.1217 227.053 70.538L227.323 70.2823L222.816 65.3331L222.545 65.5286C220.454 67.2503 217.844 68.215 215.138 68.2665C210.63 68.2665 207.444 64.957 206.708 59.3609H229.878V58.6538C229.878 57.9318 230.043 56.9238 230.043 55.8257C230.028 44.8892 224.063 37.8188 214.867 37.8188ZM206.783 52.8622C207.459 47.6271 210.149 44.7538 214.401 44.7538C220.261 44.7538 221.914 49.0712 222.305 52.8622H206.783Z" fill="#609C42"/>
<path d="M247.743 52.3356C242.484 50.2597 241.478 49.0712 241.478 47.582C241.478 45.7467 242.98 44.7388 245.985 44.7388C249.2 44.7614 252.323 45.816 254.896 47.7474L255.226 47.9881L258.622 41.9708L258.336 41.7752C254.792 39.2388 250.553 37.8573 246.196 37.8188C238.563 37.8188 233.815 41.6398 233.815 47.7775C233.815 53.3135 236.384 56.0814 244.332 59.2104C249.411 61.136 252.266 62.3545 252.266 64.7614C252.266 67.1683 250.238 68.2665 246.256 68.2665C242.644 68.1609 239.147 66.9712 236.219 64.8517L235.903 64.6862L232.372 70.5531L232.643 70.7486C236.648 73.6089 241.427 75.1828 246.346 75.2616C254.971 75.2616 259.869 71.3353 259.869 64.4906C259.869 57.6459 255.962 55.4947 247.743 52.3356Z" fill="#609C42"/>
<path d="M277.494 68.2063C275.345 68.2063 274.249 67.6046 274.249 64.3553V45.6113H282.963V38.556H274.249V24.6108L266.736 28.6424V38.556H261.702V45.6113H266.736V65.5587C266.736 71.8167 269.666 75.2617 275.015 75.2617C277.435 75.2995 279.827 74.7307 281.972 73.6069L282.122 73.5166L283.054 66.4613L282.392 66.8524C280.892 67.6922 279.212 68.1566 277.494 68.2063Z" fill="#609C42"/>
<path d="M323.517 58.1123C323.356 58.0978 323.194 58.1201 323.043 58.1774C322.892 58.2347 322.756 58.3256 322.645 58.4432C321.816 59.1291 320.801 59.5532 319.731 59.6617C318.372 59.9053 316.989 59.9711 315.613 59.8573C314.637 59.8288 313.676 59.6037 312.789 59.1954C312.635 59.0423 312.457 58.9153 312.263 58.8193C312.148 58.7346 312.017 58.6742 311.877 58.6419C311.738 58.6095 311.594 58.6059 311.453 58.6313C311.313 58.6566 311.179 58.7104 311.06 58.7892C310.94 58.8681 310.839 58.9705 310.76 59.0901C310.835 58.8043 310.895 58.5184 310.971 58.2176C311.677 57.1946 312.473 56.0513 313.3 54.8178C314.126 53.5842 315.343 51.6888 316.951 49.0712C318.559 46.4537 319.956 44.137 321.023 41.9858C322.131 39.8839 323.081 37.7015 323.863 35.457C324.527 33.8556 324.766 32.1087 324.554 30.3875C324.45 29.9278 324.239 29.4991 323.939 29.1359C323.639 28.7727 323.258 28.4851 322.827 28.2962C322.396 28.1074 321.926 28.0227 321.456 28.0488C320.986 28.075 320.529 28.2113 320.121 28.4469C318.689 29.4023 317.542 30.7278 316.801 32.2829C315.529 34.6137 314.473 37.0558 313.645 39.5789C312.668 42.4522 311.767 45.3254 310.986 48.1536C310.715 49.1164 310.46 50.1243 310.189 51.1623C308.687 52.2755 306.688 52.3657 304.179 51.4029C303.932 51.1589 303.639 50.9676 303.316 50.8409C302.993 50.7142 302.647 50.6546 302.301 50.6658C301.171 50.7246 300.102 51.1955 299.296 51.9896C298.359 52.8389 297.594 53.8602 297.042 54.9983C296.548 55.9359 296.227 56.9552 296.095 58.007C296.102 58.1322 296.102 58.2578 296.095 58.383C295.644 62.189 296.501 64.4906 298.65 65.2277C298.997 65.3484 299.363 65.4094 299.731 65.4083C300.393 65.4076 301.041 65.2142 301.595 64.8517C302.711 64.1167 303.588 63.0709 304.119 61.843C304.685 60.7823 305.086 59.6407 305.306 58.4583C305.515 57.0948 305.57 55.7122 305.471 54.3364C306.814 54.6619 308.215 54.6619 309.558 54.3364C309.318 55.3292 309.077 56.3221 308.837 57.345C308.815 57.4543 308.815 57.5668 308.837 57.676C308.311 59.8573 307.815 62.0987 307.334 64.3552C306.854 66.6117 306.553 68.2665 306.343 69.3647L305.982 71.23L305.832 72.7343C305.832 73.4715 305.667 74.6749 305.591 76.3147C305.516 77.9544 305.471 79.5038 305.516 80.948C305.56 82.401 305.741 83.8466 306.057 85.2654C306.245 86.3757 306.727 87.4149 307.455 88.2741C307.952 88.7267 308.6 88.9786 309.273 88.9811H309.528C312.082 88.5298 313.855 85.4911 314.802 79.9551C315.38 76.8566 315.607 73.7026 315.478 70.5531C315.484 67.7129 315.11 64.8848 314.366 62.1439C316.136 62.452 317.946 62.452 319.715 62.1439C321.43 61.9695 323.053 61.2829 324.373 60.1732C324.49 60.0573 324.583 59.9189 324.645 59.7664C324.707 59.6138 324.737 59.4503 324.734 59.2856C324.735 59.1222 324.702 58.9603 324.637 58.8102C324.572 58.66 324.478 58.5249 324.358 58.4131C324.12 58.2203 323.823 58.1142 323.517 58.1123ZM312.699 51.2224C315.989 38.8267 318.874 31.8918 321.263 30.6432C321.373 30.5636 321.503 30.5166 321.639 30.5078C321.712 30.4865 321.791 30.4865 321.864 30.5078C321.936 30.5537 321.997 30.6155 322.041 30.6886C322.085 30.7616 322.112 30.8439 322.12 30.929C322.224 32.6989 321.84 34.4635 321.008 36.0287C319.896 38.6826 318.611 41.2606 317.161 43.7459C315.819 46.1528 314.331 48.645 312.699 51.2224ZM311.196 61.0758C311.977 61.9784 312.533 64.265 312.849 67.8904C313.155 71.7769 312.993 75.686 312.368 79.5339C312.095 81.2736 311.59 82.9687 310.865 84.5734C310.264 85.7769 309.648 86.4538 309.032 86.5892C308.966 86.5839 308.903 86.5576 308.852 86.514C308.161 85.8371 307.755 83.8062 307.65 80.4967C307.537 77.4802 307.693 74.4595 308.116 71.4707C308.461 68.9585 309.213 65.1676 310.355 60.1882C310.409 60.3863 310.512 60.5674 310.655 60.7148C310.824 60.8809 311.03 61.0046 311.256 61.0758H311.196ZM302.015 53.1179C302.225 53.2395 302.447 53.3402 302.676 53.4187C303.029 54.9633 303.029 56.5677 302.676 58.1123C302.607 58.5659 302.486 59.01 302.316 59.4361C302.061 60.0897 301.739 60.7149 301.354 61.3014C301.047 61.8364 300.645 62.3106 300.167 62.7005C300.035 62.7868 299.886 62.8424 299.73 62.8632C299.574 62.8841 299.415 62.8696 299.266 62.8208C298.74 62.6252 298.424 62.1288 298.304 61.3165C298.154 60.41 298.154 59.4851 298.304 58.5786C298.283 58.4541 298.283 58.327 298.304 58.2025C298.45 57.0725 298.897 56.0025 299.596 55.1036C300.12 54.157 300.985 53.4466 302.015 53.1179Z" fill="#609C42"/>
<path d="M351.014 25.0623C345.004 25.0623 341.728 28.3417 341.728 34.2988V38.5561H337.221V45.7468H341.728V74.5247H349.376V45.7468H355.883V38.5561H349.376V34.9006C349.376 32.629 350.098 31.8919 352.216 31.8919C353.548 31.9238 354.869 32.1467 356.138 32.5538L356.619 32.6892V25.8295L356.333 25.7542C354.597 25.2973 352.81 25.0647 351.014 25.0623Z" fill="#609C42"/>
<path d="M362.299 74.5245H369.947V24.6108L362.299 28.6274V74.5245Z" fill="#609C42"/>
<path d="M391.418 37.8188C381.801 37.8188 375.355 45.3405 375.355 56.5779C375.355 67.8152 381.877 75.2165 391.208 75.2165C400.944 75.2165 407.465 67.6196 407.465 56.3221C407.465 45.4458 400.869 37.8188 391.418 37.8188ZM399.757 56.5779C399.757 63.1518 396.271 67.9355 391.478 67.9355C386.219 67.9355 383.079 63.6181 383.079 56.3672C383.079 49.5526 386.249 45.1449 391.147 45.1449C396.451 45.1299 399.757 49.5225 399.757 56.5779Z" fill="#609C42"/>
<path d="M441.574 55.9461C441.123 57.7212 440.672 59.7972 440.312 61.467C440.312 61.6625 440.236 61.8581 440.191 62.0537C439.62 59.6768 439.139 57.6761 438.689 56.0363L433.85 38.5861H427.72L422.942 55.9611C422.386 58.0822 421.8 60.3538 421.439 61.9785C421.049 60.1582 420.508 57.8265 420.027 55.9611L415.76 38.556H408.142L417.923 74.2538L417.998 74.5246H424.474L429.238 56.4726C429.764 54.5771 430.289 52.3507 430.74 50.5907C431.116 52.2906 431.657 54.4568 432.243 56.4124L437.081 74.4644H443.557L453.549 38.4958H445.916L441.574 55.9461Z" fill="#609C42"/>
<path d="M470.077 37.8188C460.341 37.8188 454.285 44.9945 454.285 56.5779C454.285 67.5745 460.701 75.2616 469.882 75.2616C472.167 75.3605 474.449 74.9927 476.588 74.1807C478.726 73.3686 480.678 72.1292 482.323 70.538L482.593 70.2823L478.086 65.3331L477.815 65.5286C475.696 67.2727 473.045 68.2388 470.303 68.2665C465.795 68.2665 462.624 64.957 461.888 59.3609H485.028L485.103 58.6538C485.103 57.9318 485.268 56.9238 485.268 55.8257C485.328 44.8892 479.318 37.8188 470.077 37.8188ZM461.993 52.8622C462.669 47.6271 465.359 44.7538 469.611 44.7538C475.471 44.7538 477.124 49.0712 477.515 52.8622H461.993Z" fill="#609C42"/>
<path d="M504.38 37.8189C502.939 37.8129 501.512 38.1096 500.192 38.6901C498.872 39.2705 497.688 40.1217 496.717 41.1886V38.5561H489.069V74.5246H496.717V54.0206C496.717 48.4245 499.031 45.3406 503.239 45.3406C505.026 45.2816 506.797 45.7079 508.362 46.5742L508.783 46.7998L510.781 39.5038L510.556 39.3534C508.705 38.2158 506.548 37.6798 504.38 37.8189Z" fill="#609C42"/>
<path d="M526.904 52.3356C521.645 50.2597 520.638 49.0712 520.638 47.582C520.638 45.7467 522.216 44.7388 525.146 44.7388C528.361 44.7614 531.484 45.816 534.056 47.7474L534.387 47.9881L537.767 41.9708L537.497 41.7752C533.952 39.2388 529.713 37.8573 525.356 37.8188C517.723 37.8188 512.975 41.6398 512.975 47.7775C512.975 53.3135 515.544 56.0814 523.493 59.2104C528.557 61.136 531.427 62.3545 531.427 64.7614C531.427 67.1683 529.398 68.2665 525.416 68.2665C521.804 68.1609 518.308 66.9712 515.379 64.8517L515.049 64.626L511.518 70.4929L511.788 70.6885C515.789 73.5459 520.562 75.1196 525.476 75.2015C534.116 75.2015 538.999 71.2752 538.999 64.4305C538.999 57.5858 535.123 55.4947 526.904 52.3356Z" fill="#609C42"/>
<path d="M48.9236 0C37.5546 0.115214 26.5725 4.14926 17.8267 11.4228C9.08099 18.6963 3.10591 28.765 0.907707 39.9332C-1.2905 51.1014 0.422474 62.6868 5.75814 72.7385C11.0938 82.7901 19.7262 90.6939 30.2016 95.1188C30.7855 95.3664 31.4139 95.4916 32.048 95.4868C32.682 95.4819 33.3084 95.347 33.8884 95.0905C34.4685 94.834 34.9898 94.4612 35.4205 93.9952C35.8511 93.5292 36.1818 92.9798 36.3922 92.381C36.7551 91.2337 36.6756 89.9919 36.1694 88.9004C35.6633 87.8089 34.7671 86.9468 33.6575 86.484C24.7163 82.6596 17.4635 75.7189 13.2441 66.9488C9.02475 58.1787 8.12503 48.1742 10.7118 38.7906C13.2986 29.407 19.1963 21.2808 27.3115 15.9189C35.4266 10.557 45.2085 8.32327 54.8433 9.63179C64.478 10.9403 73.312 15.7024 79.7071 23.0349C86.1022 30.3675 89.6245 39.773 89.6209 49.5075C89.6173 59.2419 86.088 68.6449 79.6875 75.9726C73.2869 83.3004 64.4494 88.0559 54.8136 89.3572L53.1608 89.5829L53.0556 88.6051C52.7596 86.2381 52.9592 83.8353 53.6416 81.5498C54.4108 79.1113 55.768 76.8999 57.5934 75.1112C58.247 74.4934 58.8268 73.8018 59.3213 73.0503C59.4463 72.8819 59.5139 72.6778 59.5141 72.468C59.5144 72.2582 59.4472 72.054 59.3226 71.8853C59.1979 71.7167 59.0224 71.5927 58.822 71.5316C58.6215 71.4705 58.4068 71.4755 58.2094 71.546C55.4558 72.4623 52.5765 72.9445 49.6749 72.9751C46.7682 72.9455 43.8839 72.4634 41.1253 71.546C40.9279 71.4755 40.7132 71.4705 40.5127 71.5316C40.3123 71.5927 40.1368 71.7167 40.0121 71.8853C39.8875 72.054 39.8203 72.2582 39.8205 72.468C39.8208 72.6778 39.8884 72.8819 40.0134 73.0503C40.3694 73.5819 40.7663 74.0848 41.2004 74.5546C44.1524 77.697 45.8106 81.8393 45.8433 86.153V94.6675C45.8394 95.2338 45.9471 95.7953 46.1603 96.3197C46.3736 96.8442 46.6882 97.3214 47.086 97.7239C47.4839 98.1264 47.9572 98.4464 48.4788 98.6653C49.0004 98.8843 49.56 98.998 50.1256 99C63.1295 98.679 75.4833 93.2411 84.5103 83.8645C93.5374 74.4879 98.5107 61.9279 98.3526 48.9057C98.1944 35.8836 92.9177 23.4483 83.6656 14.2942C74.4136 5.14006 61.9314 0.00441499 48.9236 0Z" fill="#609C42"/>
<path d="M49.4493 68.5523C50.8272 62.8894 53.2753 57.5431 56.6616 52.802C57.2091 50.1896 57.491 47.5284 57.503 44.8591C57.503 30.929 49.4493 19.6165 49.4493 19.6165C49.4493 19.6165 41.3955 30.929 41.3955 44.8591C41.4075 47.5284 41.6895 50.1896 42.2369 52.802C45.6108 57.5503 48.0578 62.8942 49.4493 68.5523Z" fill="#EE343F"/>
<path d="M71.8373 60.083C66.1053 65.4679 58.987 69.1458 51.2822 70.7036C52.8453 62.9967 56.5182 55.8767 61.8903 50.1394C67.6228 44.7552 74.7409 41.0773 82.4454 39.5188C80.8861 47.227 77.2127 54.3479 71.8373 60.083Z" fill="#EE343F"/>
<path d="M37.0083 50.1242C42.382 55.8643 46.0504 62.991 47.6014 70.7035C39.8963 69.1465 32.7778 65.4684 27.0463 60.0829C21.7011 54.333 18.0594 47.2075 16.5283 39.5037C24.2061 41.0753 31.2966 44.7523 37.0083 50.1242Z" fill="#EE343F"/>
<path d="M59.5011 49.3722C59.7566 49.0864 60.027 48.8006 60.2975 48.5298C62.8221 46.0369 65.679 43.9056 68.787 42.1966C69.4081 36.8846 69.1441 31.5062 68.0057 26.2808C64.4791 28.794 61.3141 31.7804 58.5996 35.1563C59.3641 38.3343 59.7574 41.5904 59.7716 44.8592C59.759 46.3672 59.6687 47.8736 59.5011 49.3722Z" fill="#EE343F"/>
<path d="M38.6005 48.5298C38.8709 48.8006 39.1264 49.0864 39.3968 49.3722C39.2268 47.8739 39.1415 46.3672 39.1414 44.8592C39.1556 41.5904 39.5489 38.3343 40.3134 35.1563C37.5898 31.7835 34.4204 28.7976 30.8923 26.2808C29.7338 31.5028 29.4494 36.8813 30.0509 42.1966C33.18 43.901 36.0574 46.0324 38.6005 48.5298Z" fill="#EE343F"/>
</g>
<defs>
<clipPath id="clip0_1129_2132">
<rect width="539" height="99" fill="white"/>
</clipPath>
</defs>
</svg>
