<svg width="210" height="102" viewBox="0 0 210 102" fill="none" xmlns="http://www.w3.org/2000/svg">
<g clip-path="url(#clip0_1129_1702)">
<path d="M101.963 0C96.2755 0.0575728 90.7812 2.0734 86.4058 5.708C82.0304 9.34261 79.0412 14.374 77.9414 19.9547C76.8417 25.5355 77.6987 31.3248 80.3681 36.3476C83.0374 41.3705 87.3561 45.32 92.5969 47.5311C92.889 47.6549 93.2034 47.7174 93.5206 47.715C93.8378 47.7126 94.1512 47.6452 94.4414 47.517C94.7315 47.3888 94.9924 47.2025 95.2078 46.9697C95.4233 46.7368 95.5887 46.4623 95.694 46.163C95.8778 45.5907 95.84 44.9702 95.588 44.4245C95.336 43.8787 94.8882 43.4475 94.3334 43.2163C89.8617 41.3059 86.2345 37.8387 84.1244 33.4577C82.0143 29.0767 81.5646 24.0791 82.8585 19.3918C84.1524 14.7044 87.1023 10.6453 91.161 7.96716C95.2197 5.28902 100.112 4.17359 104.93 4.82769C109.749 5.4818 114.167 7.86107 117.365 11.5243C120.562 15.1875 122.323 19.8861 122.321 24.7488C122.318 29.6114 120.553 34.3082 117.351 37.9682C114.149 41.6281 109.729 44.0029 104.91 44.6521L104.091 44.7648L104.031 44.2762C103.881 43.093 103.983 41.8915 104.331 40.7506C104.71 39.5295 105.39 38.4231 106.308 37.5333C106.631 37.2225 106.918 36.8772 107.165 36.5034C107.228 36.4193 107.262 36.3173 107.262 36.2125C107.262 36.1076 107.228 36.0056 107.166 35.9213C107.103 35.837 107.016 35.7751 106.915 35.7445C106.815 35.714 106.708 35.7165 106.609 35.7517C103.842 36.7036 100.836 36.7036 98.0694 35.7517C97.9702 35.7138 97.8614 35.7092 97.7594 35.7387C97.6573 35.7681 97.5677 35.83 97.504 35.9149C97.4403 35.9999 97.406 36.1033 97.4063 36.2095C97.4065 36.3156 97.4414 36.4188 97.5056 36.5034C97.6837 36.7691 97.8823 37.0204 98.0995 37.2552C99.5763 38.8254 100.406 40.8953 100.422 43.0509V47.3056C100.42 47.5892 100.474 47.8704 100.582 48.133C100.689 48.3956 100.847 48.6343 101.047 48.8356C101.246 49.0368 101.484 49.1965 101.746 49.3055C102.008 49.4145 102.289 49.4706 102.572 49.4706C109.079 49.3101 115.26 46.5923 119.776 41.906C124.292 37.2196 126.78 30.9424 126.7 24.4346C126.619 17.9268 123.978 11.7127 119.348 7.13891C114.718 2.56516 108.472 0.000243778 101.963 0Z" fill="#609C42"/>
<path d="M102.234 34.2557C102.93 31.4283 104.154 28.7579 105.842 26.3852C106.116 25.0798 106.257 23.75 106.263 22.4161C106.255 15.4552 102.234 9.77222 102.234 9.77222C102.234 9.77222 98.2046 15.4251 98.2046 22.3861C98.2106 23.7199 98.3516 25.0497 98.6256 26.3551C100.323 28.7333 101.548 31.4154 102.234 34.2557Z" fill="#EE343F"/>
<path d="M113.434 30.0237C110.566 32.7133 107.005 34.5509 103.151 35.3309C103.928 31.4796 105.763 27.9211 108.45 25.0549C111.328 22.3555 114.903 20.5146 118.772 19.7402C117.983 23.5976 116.135 27.1587 113.434 30.0237Z" fill="#EE343F"/>
<path d="M96.0019 25.0474C98.6943 27.9139 100.532 31.4756 101.309 35.3309C97.4552 34.5546 93.894 32.7194 91.0255 30.0313C88.3256 27.164 86.4797 23.5998 85.6958 19.7402C89.5583 20.5151 93.1277 22.3532 96.0019 25.0474Z" fill="#EE343F"/>
<path d="M107.255 24.6714C107.39 24.5286 107.518 24.3858 107.653 24.2505C108.916 23.0048 110.346 21.9398 111.901 21.0857C112.216 18.4315 112.084 15.7431 111.51 13.1326C109.745 14.3902 108.159 15.8823 106.796 17.5677C107.179 19.1558 107.376 20.7828 107.383 22.4163C107.383 23.1698 107.34 23.9227 107.255 24.6714Z" fill="#EE343F"/>
<path d="M96.7987 24.2505C96.9415 24.3858 97.0693 24.5286 97.1971 24.6714C97.1158 23.9224 97.0731 23.1697 97.0693 22.4163C97.0801 20.7831 97.2768 19.1564 97.6556 17.5677C96.2968 15.8815 94.7135 14.3893 92.9499 13.1326C92.3761 15.7431 92.2415 18.431 92.5515 21.0857C94.1064 21.9398 95.5356 23.0048 96.7987 24.2505Z" fill="#EE343F"/>
<path d="M6.92333 56.8223C3.91645 56.8223 2.27771 58.461 2.27771 61.4378V63.5577H0V67.1509H2.25515V81.5388H6.08892V67.1509H9.33634V63.5577H6.11147V61.7385C6.11147 60.5959 6.46478 60.2351 7.53222 60.2351C8.1966 60.2468 8.85545 60.3583 9.48668 60.5658L9.72723 60.6335V57.1981H9.59193C8.72127 56.9634 7.82495 56.8371 6.92333 56.8223Z" fill="#609C42"/>
<path d="M18.357 63.1895C13.5535 63.1895 10.3286 66.948 10.3286 72.5634C10.3286 78.1787 13.5836 81.9373 18.2592 81.9373C23.1229 81.9373 26.3928 78.1787 26.3928 72.4957C26.3928 67.0082 23.0853 63.1895 18.357 63.1895ZM22.5516 72.5634C22.5516 75.8559 20.8151 78.2464 18.4171 78.2464C15.7786 78.2464 14.2075 76.0814 14.2075 72.4657C14.2075 69.0529 15.7936 66.8503 18.2442 66.8503C20.8827 66.8503 22.5516 69.0378 22.5516 72.5634Z" fill="#609C42"/>
<path d="M36.5936 63.1895C35.8719 63.1879 35.1578 63.3376 34.4975 63.6289C33.8371 63.9202 33.2452 64.3467 32.7598 64.8809V63.5579H28.9336V81.539H32.7598V71.293C32.7598 68.4966 33.9175 66.9556 36.0223 66.9556C36.9156 66.9275 37.8004 67.1377 38.5857 67.5645L38.7886 67.6773L39.7959 64.0314L39.6832 63.9563C38.7551 63.3928 37.6774 63.1254 36.5936 63.1895Z" fill="#609C42"/>
<path d="M47.8244 63.1895C42.9533 63.1895 39.9238 66.7827 39.9238 72.5634C39.9238 78.066 43.1337 81.9072 47.7267 81.9072C48.8657 81.9529 50.0021 81.7665 51.0669 81.3594C52.1317 80.9524 53.1027 80.3331 53.9208 79.5393L54.0561 79.4115L51.801 76.9384L51.6657 77.0436C50.6176 77.9056 49.3089 78.3877 47.9522 78.4117C45.697 78.4117 44.1109 76.7505 43.7426 73.9616H55.304L55.3416 73.6083C55.3416 73.2399 55.4243 72.7438 55.4243 72.195C55.4243 66.7225 52.4399 63.1895 47.8244 63.1895ZM43.7801 70.7066C44.1184 68.0907 45.464 66.6549 47.5914 66.6549C50.5231 66.6549 51.3499 68.8123 51.5454 70.7066H43.7801Z" fill="#609C42"/>
<path d="M64.2867 70.4434C61.6557 69.4136 61.1521 68.8122 61.1521 68.0755C61.1521 67.1584 61.9414 66.6473 63.4072 66.6473C65.0137 66.657 66.5742 67.1842 67.8574 68.1507L68.0303 68.2634L69.7217 65.2566L69.5864 65.1589C67.8152 63.8861 65.6934 63.1928 63.5125 63.1743C59.6937 63.1743 57.3183 65.0837 57.3183 68.1582C57.3183 70.9245 58.6038 72.3077 62.5803 73.8638C65.1136 74.8335 66.5494 75.4424 66.5494 76.6376C66.5494 77.8328 65.5346 78.3966 63.5425 78.3966C61.7236 78.3454 59.9627 77.7454 58.491 76.6752L58.3256 76.5549L56.5591 79.4941L56.6944 79.5918C58.6982 81.0211 61.0891 81.8076 63.5501 81.847C67.8649 81.847 70.3155 79.885 70.3155 76.4647C70.3155 73.0444 68.4062 72.0296 64.2867 70.4434Z" fill="#609C42"/>
<path d="M79.1711 78.3817C78.0961 78.3817 77.5474 78.081 77.5474 76.4573V67.0909H81.9374V63.5578H77.5774V56.5969L73.8188 58.604V63.5578H71.2705V67.0909H73.7812V77.0587C73.7812 80.1858 75.2847 81.9073 77.9307 81.9073C79.1393 81.9262 80.3333 81.6419 81.4037 81.0804L81.4864 81.0353L81.9524 77.5097L81.6217 77.6977C80.8719 78.1199 80.0311 78.3546 79.1711 78.3817Z" fill="#609C42"/>
<path d="M102.234 73.33C102.153 73.3253 102.072 73.3384 101.997 73.3683C101.921 73.3981 101.853 73.4441 101.798 73.5029C101.38 73.8399 100.873 74.0488 100.339 74.1043C99.6578 74.2288 98.9629 74.2642 98.2722 74.2095C97.7841 74.1921 97.3041 74.0798 96.859 73.8788C96.7861 73.8009 96.6995 73.7372 96.6034 73.6908C96.5458 73.6485 96.4802 73.6183 96.4106 73.6022C96.341 73.586 96.2688 73.5842 96.1985 73.5969C96.1281 73.6095 96.0611 73.6364 96.0015 73.6758C95.9419 73.7152 95.8909 73.7664 95.8517 73.8261C95.8517 73.6833 95.9193 73.533 95.9569 73.3901L97.1146 71.6837C97.5431 71.0673 98.1444 70.1277 98.9412 68.8197C99.7381 67.5117 100.445 66.3465 100.986 65.2716C101.541 64.2212 102.016 63.1307 102.407 62.0091C102.752 61.2124 102.877 60.3374 102.767 59.4758C102.722 59.2636 102.632 59.0637 102.502 58.8899C102.372 58.716 102.206 58.5723 102.016 58.4685C101.79 58.3608 101.542 58.3086 101.292 58.3164C101.043 58.3243 100.798 58.3919 100.58 58.5136C99.8635 58.9911 99.2894 59.6534 98.9187 60.4305C98.2782 61.593 97.7496 62.8138 97.3401 64.0764C96.8515 65.5046 96.4004 66.9479 96.0095 68.3612C95.8742 68.8423 95.7389 69.3459 95.6036 69.8646C94.8519 70.4209 93.8596 70.466 92.5967 69.9773C92.4721 69.8571 92.3249 69.7627 92.1636 69.6995C92.0024 69.6363 91.8303 69.6055 91.6571 69.609C91.0896 69.6347 90.5526 69.8736 90.1537 70.278C89.685 70.7024 89.3023 71.2128 89.0261 71.7815C88.7779 72.2495 88.6174 72.7591 88.5525 73.2849C88.5557 73.3475 88.5557 73.4102 88.5525 73.4728C88.327 75.3672 88.7555 76.4797 89.8304 76.8856C90.0033 76.9512 90.1868 76.9843 90.3717 76.9834C90.7022 76.9793 91.0251 76.883 91.3038 76.7052C91.8597 76.335 92.298 75.8133 92.5667 75.2018C92.8499 74.6743 93.0502 74.1064 93.1605 73.5179C93.2649 72.8366 93.2926 72.1457 93.2432 71.4582C93.9151 71.6209 94.616 71.6209 95.2879 71.4582C95.1676 71.9544 95.0473 72.4505 94.9271 72.9617C94.913 73.0133 94.913 73.0678 94.9271 73.1195C94.664 74.217 94.4084 75.3747 94.1754 76.4647C93.9423 77.5547 93.7769 78.4191 93.6792 78.9679L93.4988 79.9L93.4236 80.6517C93.4236 81.0201 93.3409 81.6215 93.2958 82.4408C93.2507 83.2602 93.2432 84.0345 93.2958 84.7561C93.3174 85.4797 93.408 86.1997 93.5665 86.906C93.6558 87.4757 93.8973 88.0108 94.2656 88.4546C94.5123 88.6796 94.8336 88.8055 95.1676 88.8079H95.4082C96.6861 88.5749 97.5731 87.0639 98.0467 84.2976C98.3361 82.7492 98.4496 81.1732 98.385 79.5993C98.3834 78.1829 98.1964 76.7727 97.8287 75.4047C98.7141 75.5584 99.6194 75.5584 100.505 75.4047C101.286 75.2768 102.017 74.9361 102.617 74.42C102.677 74.3625 102.724 74.2936 102.756 74.2174C102.789 74.1412 102.805 74.0592 102.805 73.9765C102.806 73.8947 102.79 73.8137 102.757 73.7386C102.725 73.6635 102.677 73.596 102.617 73.5405C102.518 73.4279 102.382 73.3535 102.234 73.33ZM96.7838 69.9097C98.4301 63.708 99.8734 60.2501 101.069 59.6262C101.127 59.5853 101.194 59.5595 101.264 59.551C101.301 59.5429 101.34 59.5429 101.377 59.551C101.412 59.5732 101.442 59.6029 101.464 59.638C101.486 59.6731 101.5 59.7128 101.505 59.754C101.558 60.6394 101.363 61.5221 100.941 62.3023C100.394 63.6276 99.7557 64.9136 99.0315 66.1511C98.3474 67.3614 97.5957 68.6092 96.7838 69.9097ZM96.0321 74.8334C96.423 75.2845 96.7011 76.4271 96.859 78.2387C97.0132 80.1785 96.9299 82.1299 96.6109 84.0495C96.4838 84.9209 96.2306 85.7692 95.8592 86.5678C95.566 87.1767 95.2578 87.5149 94.9496 87.5826C94.9323 87.5816 94.9154 87.5771 94.8999 87.5693C94.8844 87.5616 94.8706 87.5507 94.8594 87.5375C94.5136 87.2067 94.3107 86.1919 94.258 84.5306C94.1972 83.0232 94.2752 81.5134 94.4911 80.0203C94.6565 78.7649 95.0323 76.8706 95.6111 74.3824C95.637 74.4819 95.6889 74.5727 95.7615 74.6455C95.8469 74.7258 95.9498 74.785 96.0622 74.8184L96.0321 74.8334ZM91.4015 70.8493C91.5057 70.9139 91.6166 70.9668 91.7323 71.0072C91.9087 71.779 91.9087 72.5807 91.7323 73.3526C91.6988 73.5795 91.6382 73.8016 91.5519 74.0141C91.4229 74.34 91.2618 74.6523 91.0708 74.9462C90.9212 75.2164 90.7194 75.4541 90.4769 75.6453C90.4097 75.6886 90.3337 75.7164 90.2544 75.7268C90.1751 75.7372 90.0945 75.7299 90.0184 75.7054C89.7628 75.6152 89.6049 75.3596 89.5448 74.9537C89.466 74.5011 89.466 74.0382 89.5448 73.5856C89.5405 73.5205 89.5405 73.4552 89.5448 73.3901C89.6257 72.8413 89.8486 72.323 90.1912 71.8867C90.3182 71.638 90.4931 71.417 90.706 71.2363C90.9189 71.0557 91.1655 70.919 91.4316 70.8343L91.4015 70.8493Z" fill="#609C42"/>
<path d="M115.953 56.8223C112.946 56.8223 111.3 58.461 111.3 61.4378V63.5577H109.044V67.1509H111.3V81.5388H115.133V67.1509H118.381V63.5577H115.133V61.7385C115.133 60.5959 115.487 60.2351 116.554 60.2351C117.218 60.2468 117.877 60.3583 118.509 60.5658L118.749 60.6335V57.1981H118.614C117.746 56.9634 116.852 56.8371 115.953 56.8223Z" fill="#609C42"/>
<path d="M121.59 81.5389H125.424V56.5969L121.59 58.604V81.5389Z" fill="#609C42"/>
<path d="M136.166 63.1895C131.355 63.1895 128.13 66.948 128.13 72.5634C128.13 78.1787 131.393 81.9373 136.061 81.9373C140.925 81.9373 144.195 78.1787 144.195 72.4957C144.195 67.0082 140.895 63.1895 136.166 63.1895ZM140.331 72.5634C140.331 75.8559 138.594 78.2464 136.196 78.2464C133.565 78.2464 131.994 76.0814 131.994 72.4657C131.994 69.0529 133.58 66.8503 136.031 66.8503C138.685 66.8503 140.331 69.0378 140.331 72.5634Z" fill="#609C42"/>
<path d="M161.259 72.2551C161.033 73.1421 160.808 74.172 160.627 75.0064C160.627 75.1116 160.582 75.2093 160.567 75.3071C160.281 74.1118 160.033 73.1196 159.815 72.3002L157.402 63.5803H154.328L151.945 72.2701C151.659 73.33 151.374 74.4576 151.193 75.277C150.998 74.3674 150.727 73.2023 150.487 72.2701L148.374 63.5727H144.563L149.457 81.411L149.494 81.5538H152.734L155.117 72.5332C155.373 71.5785 155.643 70.4735 155.869 69.594C156.057 70.4359 156.32 71.5184 156.621 72.4956L159.041 81.5163H162.273L167.28 63.5352H163.461L161.259 72.2551Z" fill="#609C42"/>
<path d="M175.519 63.1895C170.64 63.1895 167.633 66.7827 167.633 72.5634C167.633 78.066 170.843 81.9072 175.436 81.9072C176.575 81.9529 177.712 81.7665 178.776 81.3594C179.841 80.9524 180.812 80.3331 181.63 79.5393L181.766 79.4115L179.51 76.9384L179.375 77.0436C178.327 77.9056 177.018 78.3877 175.662 78.4117C173.406 78.4117 171.82 76.7505 171.452 73.9616H183.044V73.6083C183.094 73.1289 183.119 72.6471 183.119 72.165C183.119 66.7225 180.134 63.1895 175.519 63.1895ZM171.475 70.7066C171.813 68.0907 173.158 66.6549 175.286 66.6549C178.217 66.6549 179.044 68.8123 179.24 70.7066H171.475Z" fill="#609C42"/>
<path d="M192.681 63.1895C191.959 63.1879 191.245 63.3376 190.584 63.6289C189.924 63.9202 189.332 64.3467 188.847 64.8809V63.5579H185.021V81.539H188.847V71.293C188.847 68.4966 190.004 66.9556 192.109 66.9556C193.003 66.9275 193.887 67.1377 194.673 67.5645L194.876 67.6773L195.883 64.0314L195.77 63.9563C194.842 63.3928 193.764 63.1254 192.681 63.1895Z" fill="#609C42"/>
<path d="M203.948 70.4434C201.31 69.4136 200.814 68.8122 200.814 68.0755C200.814 67.1584 201.603 66.6473 203.069 66.6473C204.675 66.6602 206.234 67.1871 207.519 68.1507L207.692 68.2634L209.383 65.2566L209.248 65.1589C207.475 63.885 205.35 63.1918 203.167 63.1743C199.355 63.1743 196.98 65.0837 196.98 68.1582C196.98 70.9245 198.265 72.3077 202.242 73.8638C204.775 74.8335 206.211 75.4424 206.211 76.6376C206.211 77.8328 205.189 78.3966 203.204 78.3966C201.385 78.3454 199.624 77.7454 198.153 76.6752L197.987 76.5549L196.198 79.5242L196.334 79.6219C198.335 81.0498 200.723 81.8362 203.182 81.8771C207.504 81.8771 209.947 79.9151 209.947 76.4948C209.947 73.0744 208.06 72.0296 203.948 70.4434Z" fill="#609C42"/>
<path d="M53.4323 96.4305H50.4254V97.5355H52.1844V98.6706H50.4254V101.129H49.2603V95.2954H53.4323V96.4305Z" fill="#EE343F"/>
<path d="M56.3788 101.129H55.2212V95.2954H56.3788V101.129Z" fill="#EE343F"/>
<path d="M62.8133 101.129H58.6338V95.2954H62.6931V96.4305H59.8065V97.4453H61.4828V98.5804H59.8065V99.9786H62.8133V101.129Z" fill="#EE343F"/>
<path d="M68.82 101.129H64.7231V95.2954H65.8958V99.9786H68.82V101.129Z" fill="#EE343F"/>
<path d="M75.2923 98.2121C75.3142 98.6086 75.2507 99.0053 75.106 99.3752C74.9614 99.7451 74.739 100.08 74.454 100.356C74.1689 100.633 73.8277 100.845 73.4536 100.978C73.0795 101.111 72.6811 101.163 72.2854 101.129H70.564V95.2954H72.3906C74.0595 95.2954 75.2923 96.0772 75.2923 98.2121ZM74.0895 98.2121C74.0895 97.0168 73.5784 96.423 72.3455 96.423H71.7291V99.9786H72.308C72.5472 100.006 72.7895 99.979 73.017 99.9C73.2445 99.8211 73.4513 99.6921 73.6223 99.5225C73.7933 99.353 73.9241 99.1472 74.0049 98.9204C74.0858 98.6936 74.1147 98.4515 74.0895 98.2121Z" fill="#EE343F"/>
<path d="M84.3881 96.4305H81.3812V97.5355H83.1402V98.6706H81.3812V101.129H80.2085V95.2954H84.3881V96.4305Z" fill="#EE343F"/>
<path d="M90.8153 101.129H89.4547L88.4098 99.0238H87.2296V101.129H86.0645V95.2952H88.7857C89.0429 95.266 89.3034 95.2924 89.5495 95.3728C89.7957 95.4532 90.0216 95.5856 90.212 95.761C90.4024 95.9364 90.5528 96.1508 90.653 96.3895C90.7532 96.6282 90.8009 96.8857 90.7928 97.1445C90.8243 97.5142 90.7311 97.8839 90.5281 98.1945C90.3251 98.5051 90.024 98.7388 89.6727 98.8584L90.8153 101.129ZM89.6126 97.167C89.6126 96.6408 89.2968 96.4153 88.7782 96.4153H87.2747V97.9187H88.7782C89.3269 97.9263 89.6126 97.6782 89.6126 97.167Z" fill="#EE343F"/>
<path d="M96.889 101.129H92.7095V95.2954H96.7612V96.4305H93.8746V97.4453H95.551V98.5804H93.8746V99.9786H96.8815L96.889 101.129Z" fill="#EE343F"/>
<path d="M102.985 99.3622C102.985 100.467 102.286 101.219 100.73 101.219C100.297 101.236 99.8656 101.149 99.473 100.965C99.0804 100.78 98.7381 100.504 98.4751 100.159L99.317 99.4073C99.5026 99.6225 99.7339 99.7935 99.994 99.908C100.254 100.022 100.536 100.077 100.82 100.069C101.512 100.069 101.835 99.8809 101.835 99.4373C101.835 98.9938 101.64 98.8961 100.535 98.6856C99.4298 98.4751 98.7081 98.0918 98.7081 96.9416C98.7081 95.7915 99.6403 95.2277 100.798 95.2277C101.196 95.2208 101.591 95.299 101.957 95.4572C102.323 95.6153 102.65 95.8498 102.918 96.1448L101.978 96.9717C101.813 96.7837 101.609 96.633 101.381 96.5293C101.153 96.4257 100.906 96.3715 100.655 96.3703C100.031 96.3703 99.8207 96.6409 99.8207 96.8965C99.8207 97.2649 100.069 97.3776 101.001 97.5956C101.933 97.8136 102.985 98.0918 102.985 99.3622Z" fill="#EE343F"/>
<path d="M109.578 101.129H108.413V98.6781H105.992V101.129H104.827V95.2954H105.992V97.5506H108.39V95.2954H109.555L109.578 101.129Z" fill="#EE343F"/>
<path d="M119.005 96.4305H115.998V97.5355H117.757V98.6706H115.998V101.129H114.833V95.2954H119.005V96.4305Z" fill="#EE343F"/>
<path d="M125.244 98.2044C125.244 100.084 124.184 101.211 122.665 101.211C121.147 101.211 120.102 100.099 120.102 98.2044C120.102 96.3101 121.162 95.1975 122.688 95.1975C124.214 95.1975 125.244 96.3176 125.244 98.2044ZM124.041 98.2044C124.041 97.0167 123.477 96.3401 122.658 96.3401C121.839 96.3401 121.297 97.0016 121.297 98.1893C121.297 99.3771 121.869 100.046 122.688 100.046C123.507 100.046 124.034 99.3996 124.034 98.2194L124.041 98.2044Z" fill="#EE343F"/>
<path d="M131.814 101.129H130.476L129.431 99.0238H128.258V101.129H127.085V95.2952H129.807C130.064 95.266 130.324 95.2924 130.571 95.3728C130.817 95.4532 131.043 95.5856 131.233 95.761C131.423 95.9364 131.574 96.1508 131.674 96.3895C131.774 96.6282 131.822 96.8857 131.814 97.1445C131.844 97.5131 131.752 97.8814 131.55 98.1916C131.349 98.5018 131.05 98.7364 130.701 98.8584L131.814 101.129ZM130.619 97.167C130.619 96.6408 130.295 96.4153 129.784 96.4153H128.281V97.9187H129.784C130.325 97.9263 130.619 97.6782 130.619 97.167Z" fill="#EE343F"/>
<path d="M140.887 101.129H136.812V95.2954H137.985V99.9786H140.909L140.887 101.129Z" fill="#EE343F"/>
<path d="M146.81 101.129H142.631V95.2954H146.683V96.4305H143.796V97.4453H145.472V98.5804H143.796V99.9786H146.803L146.81 101.129Z" fill="#EE343F"/>
<path d="M152.869 99.3622C152.869 100.467 152.17 101.219 150.576 101.219C150.143 101.237 149.712 101.149 149.319 100.965C148.927 100.78 148.584 100.504 148.321 100.159L149.163 99.4073C149.349 99.6225 149.58 99.7936 149.84 99.908C150.1 100.022 150.383 100.077 150.667 100.069C151.358 100.069 151.681 99.8809 151.681 99.4374C151.681 98.9939 151.486 98.8962 150.381 98.6857C149.276 98.4752 148.554 98.0918 148.554 96.9417C148.554 95.7916 149.494 95.2278 150.644 95.2278C151.042 95.2204 151.438 95.2984 151.803 95.4566C152.169 95.6148 152.497 95.8495 152.764 96.1449L151.899 96.9718C151.734 96.7834 151.531 96.6324 151.303 96.5287C151.075 96.425 150.827 96.3711 150.576 96.3704C149.953 96.3704 149.742 96.641 149.742 96.8966C149.742 97.2649 149.99 97.3777 150.922 97.5957C151.854 97.8137 152.869 98.0918 152.869 99.3622Z" fill="#EE343F"/>
<path d="M158.921 99.362C158.921 100.467 158.222 101.219 156.666 101.219C156.232 101.238 155.801 101.151 155.408 100.966C155.015 100.782 154.673 100.505 154.411 100.159L155.253 99.4071C155.437 99.624 155.668 99.7962 155.928 99.9108C156.189 100.025 156.472 100.079 156.756 100.069C157.448 100.069 157.778 99.8807 157.778 99.4372C157.778 98.9937 157.575 98.8959 156.478 98.6855C155.38 98.475 154.651 98.0916 154.651 96.9415C154.651 95.7913 155.583 95.2275 156.733 95.2275C157.133 95.22 157.529 95.298 157.896 95.4561C158.263 95.6143 158.592 95.849 158.861 96.1446L157.959 96.9715C157.792 96.7834 157.587 96.6326 157.358 96.5289C157.128 96.4253 156.88 96.3712 156.628 96.3702C156.004 96.3702 155.794 96.6408 155.794 96.8964C155.794 97.2647 156.049 97.3775 156.974 97.5955C157.899 97.8135 158.921 98.0916 158.921 99.362Z" fill="#EE343F"/>
</g>
<defs>
<clipPath id="clip0_1129_1702">
<rect width="210" height="101.219" fill="white"/>
</clipPath>
</defs>
</svg>
