<svg width="37" height="51" viewBox="0 0 37 51" fill="none" xmlns="http://www.w3.org/2000/svg">
<g clip-path="url(#clip0_1129_80)">
<path d="M18.5005 0C10.7915 0 4.62538 6.37553 4.62538 14.3439V20.7194C2.00454 20.7194 0 22.7917 0 25.5011V46.2194C0 48.9288 2.00454 51.0011 4.62538 51.0011H32.3756C34.9965 51.0011 37.001 48.9288 37.001 46.2194V25.5011C37.001 22.7917 34.9965 20.7194 32.3756 20.7194V14.3439C32.3756 6.37553 26.2085 0 18.5005 0ZM7.70795 20.7184V14.3428C7.70795 8.12711 12.4869 3.18671 18.4995 3.18671C24.5121 3.18671 29.291 8.12711 29.291 14.3428V20.7184H7.70795Z" fill="#609C42"/>
<g clip-path="url(#clip1_1129_80)">
<path d="M18.3981 26C13.5715 26.0538 9.48833 29.9941 9.04284 35.0516C8.6541 39.4519 11.0036 43.5236 14.803 45.2144C15.274 45.4235 15.8188 45.1755 15.9919 44.6617C16.1508 44.1927 15.904 43.667 15.4698 43.4728C12.2861 42.0389 10.3651 38.5437 10.8645 34.8275C11.3639 31.1113 14.261 28.2495 17.7824 27.9119C22.3565 27.4758 26.2155 31.2726 26.2155 36.0015C26.2155 40.1121 23.2985 43.5206 19.5303 44.0523L19.2125 44.1001L19.1926 43.9C19.1416 43.422 19.1671 42.9321 19.3061 42.475C19.4565 41.9851 19.7091 41.537 20.0666 41.1726C20.2028 41.0351 20.3134 40.8917 20.3986 40.7573C20.4951 40.602 20.3503 40.4048 20.1829 40.4616C19.814 40.59 19.2182 40.7484 18.5428 40.7484C17.8675 40.7484 17.2716 40.587 16.9028 40.4616C16.7353 40.4048 16.5906 40.599 16.6871 40.7543C16.7495 40.8529 16.8261 40.9575 16.9141 41.059C17.4759 41.7013 17.8051 42.5318 17.8051 43.4041V45.1248C17.8051 45.6057 18.174 46.006 18.6308 46C23.8093 45.9254 27.9974 41.4683 27.9974 36.0015C27.9974 30.5348 23.6816 25.9433 18.3981 26Z" fill="white"/>
<path d="M18.4996 39.8491C18.6414 39.2307 19.0245 37.9103 19.8843 36.6676C19.9836 36.1628 20.046 35.6251 20.046 35.0634C20.046 32.2464 18.4996 29.9641 18.4996 29.9641C18.4996 29.9641 16.9531 32.2464 16.9531 35.0634C16.9531 35.6251 17.0156 36.1628 17.1149 36.6676C17.9775 37.9103 18.3577 39.2307 18.4996 39.8491Z" fill="white"/>
<path d="M22.8015 38.1375C21.15 39.8761 18.8545 40.2824 18.8545 40.2824C18.8545 40.2824 19.2376 37.8657 20.8918 36.1271C22.5433 34.3885 24.8388 33.9822 24.8388 33.9822C24.8388 33.9822 24.4557 36.3989 22.8015 38.1375Z" fill="white"/>
<path d="M16.1081 36.1239C17.7595 37.8625 18.1455 40.2792 18.1455 40.2792C18.1455 40.2792 15.8499 39.8759 14.1985 38.1343C12.547 36.3957 12.1611 33.979 12.1611 33.979C12.1611 33.979 14.4567 34.3823 16.1081 36.1239Z" fill="white"/>
<path d="M20.4297 35.9747C20.4808 35.9179 20.5319 35.8582 20.583 35.8044C21.0966 35.2637 21.6641 34.8485 22.2117 34.5259C22.4132 32.7514 22.0613 31.3115 22.0613 31.3115C22.0613 31.3115 21.142 31.9538 20.251 33.1039C20.3872 33.7103 20.4751 34.3705 20.4751 35.0666C20.4751 35.3772 20.4581 35.6819 20.4269 35.9777L20.4297 35.9747Z" fill="white"/>
<path d="M16.4145 35.8013C16.4685 35.8581 16.5167 35.9148 16.5678 35.9716C16.5366 35.6758 16.5195 35.3711 16.5195 35.0605C16.5195 34.3644 16.6103 33.7042 16.7437 33.0978C15.8527 31.9477 14.9334 31.3054 14.9334 31.3054C14.9334 31.3054 14.5815 32.7483 14.783 34.5198C15.3306 34.8424 15.8981 35.2576 16.4117 35.7983L16.4145 35.8013Z" fill="white"/>
</g>
</g>
<defs>
<clipPath id="clip0_1129_80">
<rect width="37" height="51" fill="white"/>
</clipPath>
<clipPath id="clip1_1129_80">
<rect width="19" height="20" fill="white" transform="translate(9 26)"/>
</clipPath>
</defs>
</svg>
